<svg width="120" height="120" viewBox="0 0 120 120" xmlns="http://www.w3.org/2000/svg">
  <defs>
    <linearGradient id="gradient1" x1="0%" y1="0%" x2="100%" y2="100%">
      <stop offset="0%" style="stop-color:#41b883;stop-opacity:1" />
      <stop offset="100%" style="stop-color:#35495e;stop-opacity:1" />
    </linearGradient>
    <filter id="shadow" x="-50%" y="-50%" width="200%" height="200%">
      <feDropShadow dx="2" dy="4" stdDeviation="3" flood-opacity="0.3"/>
    </filter>
  </defs>
  
  <!-- Background Circle -->
  <circle cx="60" cy="60" r="55" fill="url(#gradient1)" filter="url(#shadow)"/>
  
  <!-- JSX Brackets -->
  <path d="M25 35 L20 45 L25 55" stroke="white" stroke-width="3" fill="none" stroke-linecap="round"/>
  <path d="M95 35 L100 45 L95 55" stroke="white" stroke-width="3" fill="none" stroke-linecap="round"/>
  
  <!-- jQuery $ symbol -->
  <path d="M40 30 C35 30, 30 35, 30 45 C30 55, 35 60, 40 60 C45 60, 50 55, 50 45" 
        stroke="white" stroke-width="4" fill="none" stroke-linecap="round"/>
  <path d="M42 65 L38 75" stroke="white" stroke-width="4" stroke-linecap="round"/>
  
  <!-- X Symbol -->
  <path d="M70 35 L85 50 M85 35 L70 50" stroke="white" stroke-width="4" stroke-linecap="round"/>
  
  <!-- Connection line -->
  <path d="M55 45 L65 45" stroke="white" stroke-width="2" stroke-linecap="round" opacity="0.7"/>
  
  <!-- Text -->
  <text x="60" y="85" text-anchor="middle" fill="white" font-family="Arial, sans-serif" font-size="16" font-weight="bold">
    JQX
  </text>
</svg>
